<?xml version="1.0" encoding="utf-8"?>
<svg width="68px" height="92px" viewBox="0 0 68 92" version="1.1" xmlns:xlink="http://www.w3.org/1999/xlink" xmlns="http://www.w3.org/2000/svg">
  <defs>
    <filter id="filter_1">
      <feColorMatrix in="SourceGraphic" type="matrix" values="0 0 0 0 1 0 0 0 0 1 0 0 0 0 1 0 0 0 1 0" />
    </filter>
    <path d="M0 0L66 0L66 90L0 90L0 0Z" id="path_1" />
    <clipPath id="mask_1">
      <use xlink:href="#path_1" />
    </clipPath>
  </defs>
  <g id="OSI_Standard_Logo" transform="translate(1 1)">
    <path d="M0 0L66 0L66 90L0 90L0 0Z" id="Background" fill="none" fill-rule="evenodd" stroke="none" />
    <g clip-path="url(#mask_1)">
      <g id="surface480" transform="translate(8.083984 7.0360107)">
        <g id="layer1">
          <path d="M28.2782 33.5928C31.8914 32.2489 33.7777 29.6606 33.7777 25.206C33.7777 20.7514 30.0296 16.8261 25.3463 16.8184C20.4042 16.8104 16.6761 20.7351 16.7357 25.206C16.7953 29.6768 18.9242 32.6511 22.3317 33.7266L16.2956 48.5989C8.21668 46.5044 0 36.9592 0 25.206C0 11.2851 11.1687 0 25.1671 0C39.1654 0 50.5134 11.2851 50.5134 25.206C50.5134 37.1421 42.3747 46.5541 34.1234 48.6408L28.2782 33.5928Z" id="path3068" fill="#8800AA" fill-opacity="0" fill-rule="evenodd" stroke="#FFFFFF" stroke-width="2" stroke-linecap="round" stroke-linejoin="round" />
        </g>
      </g>
      <g id="flowRoot3742" transform="translate(6.3061523 60.351196)" filter="url(#filter_1)">
        <path d="M4.93384 2.68059C4.93384 3.53129 4.71572 4.19531 4.27948 4.67269C3.84615 5.14699 3.23833 5.38414 2.45601 5.38414C1.70568 5.38414 1.10804 5.14087 0.66308 4.65432C0.221027 4.16778 0 3.50987 0 2.68059C0 1.83296 0.216664 1.17505 0.649992 0.70687C1.08623 0.235623 1.69696 0 2.48219 0C2.96786 0 3.39683 0.108629 3.76908 0.325893C4.14134 0.543157 4.4278 0.855276 4.62847 1.26226C4.83205 1.66619 4.93384 2.13897 4.93384 2.68059L4.93384 2.68059ZM1.73193 2.68058C1.73193 3.12735 1.78864 3.46855 1.90207 3.70417C2.01549 3.93673 2.20598 4.05301 2.47354 4.05301C2.73819 4.05301 2.92431 3.93673 3.03192 3.70417C3.14243 3.46855 3.19769 3.12735 3.19769 2.68058C3.19769 2.23688 3.14243 1.9018 3.03192 1.67536C2.92141 1.44891 2.73237 1.33569 2.46481 1.33569C2.20307 1.33569 2.01549 1.44891 1.90207 1.67536C1.78864 1.89874 1.73193 2.23382 1.73193 2.68058L1.73193 2.68058Z" id="path3756" fill="#000000" fill-rule="evenodd" stroke="none" />
        <path d="M2.96641 5.38414C2.7163 5.38414 2.49237 5.34131 2.2946 5.25562C2.09684 5.16688 1.90054 5.00929 1.70569 4.78285L1.62716 4.78285C1.67951 5.14699 1.70569 5.37343 1.70569 5.46218L1.70569 7.55065L0 7.55065L0 0.0917955L1.38723 0.0917955L1.62716 0.752765L1.70569 0.752765C2.02269 0.250924 2.46038 0 3.01876 0C3.56551 0 3.99448 0.238682 4.30566 0.716046C4.61684 1.19341 4.77243 1.84826 4.77243 2.68059C4.77243 3.51904 4.60957 4.18001 4.28385 4.6635C3.96103 5.14393 3.52189 5.38414 2.96641 5.38414L2.96641 5.38414ZM2.39482 1.40918C2.14471 1.40918 1.96876 1.50404 1.86697 1.69376C1.76809 1.88043 1.71429 2.15889 1.70557 2.52915L1.70557 2.67144C1.70557 3.11821 1.76228 3.44105 1.8757 3.63995C1.98912 3.83885 2.16798 3.9383 2.41227 3.9383C2.63039 3.9383 2.78889 3.84038 2.88777 3.64454C2.98665 3.44564 3.03609 3.11821 3.03609 2.66227C3.03609 2.2155 2.98665 1.89573 2.88777 1.70294C2.78889 1.5071 2.62457 1.40918 2.39482 1.40918L2.39482 1.40918Z" transform="translate(5.9023438 0)" id="path3758" fill="#000000" fill-rule="evenodd" stroke="none" />
        <path d="M2.59997 5.38414C1.77694 5.38414 1.13712 5.15464 0.680529 4.69564C0.226843 4.23356 0 3.57719 0 2.7265C0 1.84826 0.210847 1.17505 0.632543 0.70687C1.05424 0.235623 1.65624 0 2.43856 0C3.18307 0 3.75745 0.205023 4.1617 0.615068C4.56885 1.02205 4.77243 1.60958 4.77243 2.37765L4.77243 3.17633L1.72314 3.17633C1.73477 3.46703 1.8351 3.695 2.02414 3.86024C2.21608 4.02548 2.47637 4.1081 2.805 4.1081C3.10455 4.1081 3.37938 4.07904 3.62949 4.02089C3.88251 3.95969 4.15588 3.85718 4.44961 3.71336L4.44961 5.00317C4.18206 5.14699 3.90577 5.24644 3.62076 5.30152C3.33576 5.35661 2.99549 5.38414 2.59997 5.38414L2.59997 5.38414ZM2.4999 1.22095C2.29923 1.22095 2.13056 1.28827 1.99387 1.42291C1.86009 1.55449 1.78157 1.76258 1.7583 2.04716L3.22406 2.04716C3.21824 1.79624 3.1499 1.59581 3.01903 1.44586C2.89106 1.29592 2.71802 1.22095 2.4999 1.22095L2.4999 1.22095Z" transform="translate(11.429199 0)" id="path3760" fill="#000000" fill-rule="evenodd" stroke="none" />
        <path d="M3.11909 5.29235L3.11909 2.45568C3.11909 2.1099 3.07111 1.8498 2.97513 1.67537C2.88207 1.49789 2.73084 1.40915 2.52145 1.40915C2.23353 1.40915 2.02559 1.53002 1.89763 1.77176C1.76967 2.01351 1.70569 2.42814 1.70569 3.01567L1.70569 5.29235L0 5.29235L0 0.0917955L1.2869 0.0917955L1.50065 0.734406L1.60099 0.734406C1.7464 0.489606 1.94707 0.306001 2.203 0.183598C2.46183 0.0612016 2.75847 0 3.09292 0C3.63967 0 4.06427 0.166772 4.36673 0.500315C4.67209 0.833858 4.82478 1.30357 4.82478 1.90946L4.82478 5.29235L3.11909 5.29235Z" transform="translate(17.174805 0)" id="path3762" fill="#000000" fill-rule="evenodd" stroke="none" />
        <path d="M3.5466 3.72254C3.5466 4.21827 3.37502 4.59924 3.03184 4.86547C2.68867 5.12863 2.19718 5.26021 1.55736 5.26021C0.914645 5.26021 0.398429 5.1577 0.00872453 4.95268L0.00872453 4.0209C0.575833 4.2963 1.10368 4.434 1.59226 4.434C2.22335 4.434 2.5389 4.23357 2.5389 3.8327C2.5389 3.70418 2.504 3.59708 2.4342 3.5114C2.3644 3.42572 2.24953 3.33698 2.08957 3.24518C1.92962 3.15337 1.70714 3.04933 1.42213 2.93305C0.866659 2.70661 0.490039 2.48016 0.29228 2.25372C0.097428 2.02728 0 1.73352 0 1.37243C0 0.937902 0.16577 0.6013 0.497312 0.362618C0.83176 0.12087 1.28545 0 1.85837 0C2.42547 0 2.96205 0.12087 3.46808 0.362618L3.13654 1.17506C2.61597 0.948611 2.17827 0.835391 1.82347 0.835391C1.28254 0.835391 1.01207 0.997571 1.01207 1.32194C1.01207 1.48106 1.08187 1.6157 1.22146 1.72587C1.36397 1.83603 1.67224 1.9875 2.14629 2.18028C2.54472 2.34246 2.83408 2.49087 3.0144 2.62552C3.1947 2.76016 3.32849 2.91622 3.41573 3.09371C3.50298 3.26813 3.5466 3.47774 3.5466 3.72254L3.5466 3.72254Z" transform="translate(25.319336 0.12390137)" id="path3764" fill="#000000" fill-rule="evenodd" stroke="none" />
        <path d="M4.5674 2.62093C4.5674 3.4502 4.36528 4.09739 3.96103 4.56252C3.55678 5.02765 2.99404 5.26021 2.2728 5.26021C1.82202 5.26021 1.42359 5.15311 1.07751 4.93891C0.731424 4.7247 0.46532 4.41717 0.279192 4.01631C0.093064 3.61544 0 3.15032 0 2.62093C0 1.79778 0.200671 1.15517 0.602007 0.693103C1.00335 0.231032 1.569 0 2.29897 0C2.99695 0 3.54951 0.237156 3.95667 0.711462C4.36382 1.18271 4.5674 1.81919 4.5674 2.62093L4.5674 2.62093ZM1.05566 2.62086C1.05566 3.79286 1.46718 4.37885 2.29022 4.37885C3.10452 4.37885 3.51168 3.79286 3.51168 2.62086C3.51168 1.4611 3.10161 0.881226 2.28149 0.881226C1.85107 0.881226 1.53843 1.03117 1.34358 1.33105C1.15164 1.63094 1.05566 2.06087 1.05566 2.62086L1.05566 2.62086Z" transform="translate(29.68164 0.12390137)" id="path3766" fill="#000000" fill-rule="evenodd" stroke="none" />
        <path d="M3.44627 5.07661L3.30231 4.41105L3.24996 4.41105C3.10746 4.64668 2.90388 4.83181 2.63923 4.96645C2.37749 5.10109 2.07794 5.16841 1.74058 5.16841C1.15603 5.16841 0.719793 5.01541 0.431876 4.7094C0.14396 4.4034 0 3.93981 0 3.31861L0 0L1.03388 0L1.03388 3.13042C1.03388 3.51905 1.10949 3.81129 1.26072 4.00712C1.41195 4.19991 1.64897 4.2963 1.97179 4.2963C2.40221 4.2963 2.71776 4.16165 2.91842 3.89237C3.122 3.62003 3.22379 3.16562 3.22379 2.52912L3.22379 0L4.25331 0L4.25331 5.07661L3.44627 5.07661Z" transform="translate(35.387207 0.21569824)" id="path3768" fill="#000000" fill-rule="evenodd" stroke="none" />
        <path d="M2.44729 0C2.65378 0 2.82391 0.0153004 2.95769 0.0459012L2.85735 1.05112C2.71194 1.0144 2.56071 0.996045 2.40367 0.996045C1.9936 0.996045 1.66061 1.13681 1.40469 1.41833C1.15167 1.69986 1.02516 2.06553 1.02516 2.51536L1.02516 5.16842L0 5.16842L0 0.0918024L0.802678 0.0918024L0.93791 0.986862L0.990257 0.986862C1.15021 0.68392 1.35815 0.443705 1.61408 0.266224C1.87291 0.0887437 2.15065 0 2.44729 0L2.44729 0Z" transform="translate(41.10205 0.12390137)" id="path3770" fill="#000000" fill-rule="evenodd" stroke="none" />
        <path d="M2.23353 5.26021C1.50356 5.26021 0.94809 5.03683 0.567109 4.59007C0.189037 4.14024 0 3.4961 0 2.65764C0 1.80389 0.197762 1.14752 0.593283 0.688511C0.991712 0.229506 1.56609 0 2.31642 0C2.82536 0 3.28341 0.0994526 3.69057 0.298351L3.38084 1.16588C2.94751 0.988395 2.58979 0.899651 2.30769 0.899651C1.47303 0.899651 1.05569 1.48259 1.05569 2.64847C1.05569 3.21763 1.15894 3.64604 1.36542 3.93369C1.57482 4.21827 1.88018 4.36056 2.28152 4.36056C2.73811 4.36056 3.16999 4.24122 3.57714 4.00253L3.57714 4.9435C3.39393 5.05672 3.19762 5.13781 2.98822 5.18677C2.78174 5.23573 2.53018 5.26021 2.23353 5.26021L2.23353 5.26021Z" transform="translate(44.67041 0.12390137)" id="path3772" fill="#000000" fill-rule="evenodd" stroke="none" />
        <path d="M2.39494 5.26021C1.64461 5.26021 1.05715 5.03071 0.632544 4.57171C0.21085 4.10964 0 3.47468 0 2.66683C0 1.83755 0.196307 1.18577 0.588921 0.711462C0.981536 0.237156 1.52101 0 2.20736 0C2.84426 0 3.34739 0.20349 3.71674 0.610476C4.08608 1.01746 4.27076 1.57745 4.27076 2.29044L4.27076 2.87338L1.0557 2.87338C1.07024 3.36605 1.19674 3.74549 1.43522 4.01172C1.6737 4.27488 2.0096 4.40646 2.44293 4.40646C2.72793 4.40646 2.99258 4.37892 3.23688 4.32384C3.48408 4.2657 3.74872 4.17084 4.03083 4.03926L4.03083 4.91596C3.78072 5.04142 3.5277 5.13016 3.27177 5.18218C3.01585 5.2342 2.72357 5.26021 2.39494 5.26021L2.39494 5.26021ZM2.20746 0.817017C1.88173 0.817017 1.61999 0.925645 1.42223 1.14291C1.22738 1.36017 1.11105 1.67689 1.07324 2.09305L3.26315 2.09305C3.25733 1.67383 3.16136 1.35712 2.97523 1.14291C2.7891 0.925645 2.53318 0.817017 2.20746 0.817017L2.20746 0.817017Z" transform="translate(49.103027 0.12390137)" id="path3774" fill="#000000" fill-rule="evenodd" stroke="none" />
        <path d="M1.08619 7.02277L0.0610352 7.02277L0.0610352 1.94617L1.08619 1.94617L1.08619 7.02277ZM0 0.6013C0 0.408513 0.0494396 0.2601 0.148319 0.156063C0.250109 0.0520186 0.394065 0 0.580193 0C0.760504 0 0.9001 0.0520186 0.998981 0.156063C1.10077 0.2601 1.15166 0.408513 1.15166 0.6013C1.15166 0.784898 1.10077 0.930252 0.998981 1.03736C0.9001 1.14139 0.760504 1.19342 0.580193 1.19342C0.394065 1.19342 0.250109 1.14139 0.148319 1.03736C0.0494396 0.930252 0 0.784898 0 0.6013L0 0.6013Z" transform="translate(8.498047 7.695923)" id="path3776" fill="#000000" fill-rule="evenodd" stroke="none" />
        <path d="M4.24458 5.16841L3.21506 5.16841L3.21506 2.04717C3.21506 1.65548 3.13945 1.36325 2.98822 1.17047C2.8399 0.977679 2.60288 0.881292 2.27715 0.881292C1.84383 0.881292 1.52683 1.01593 1.32616 1.28521C1.12549 1.5545 1.02516 2.00586 1.02516 2.63929L1.02516 5.16841L0 5.16841L0 0.0918024L0.802676 0.0918024L0.946634 0.757356L0.998982 0.757356C1.14439 0.515615 1.35088 0.328952 1.61844 0.197372C1.886 0.0657862 2.18264 0 2.50836 0C3.66584 0 4.24458 0.61966 4.24458 1.85897L4.24458 5.16841Z" transform="translate(11.054199 9.550293)" id="path3778" fill="#000000" fill-rule="evenodd" stroke="none" />
        <path d="M1.08619 7.02277L0.0610352 7.02277L0.0610352 1.94617L1.08619 1.94617L1.08619 7.02277ZM0 0.6013C0 0.408513 0.0494396 0.2601 0.148321 0.156063C0.250109 0.0520186 0.394066 0 0.580194 0C0.760505 0 0.900101 0.0520186 0.998982 0.156063C1.10077 0.2601 1.15166 0.408513 1.15166 0.6013C1.15166 0.784898 1.10077 0.930252 0.998982 1.03736C0.900101 1.14139 0.760505 1.19342 0.580194 1.19342C0.394066 1.19342 0.250109 1.14139 0.148321 1.03736C0.0494396 0.930252 0 0.784898 0 0.6013L0 0.6013Z" transform="translate(16.66455 7.695923)" id="path3780" fill="#000000" fill-rule="evenodd" stroke="none" />
        <path d="M2.36004 5.42546C2.61015 5.42546 2.86026 5.38415 3.11037 5.30152L3.11037 6.11396C2.99695 6.16599 2.85008 6.20882 2.66977 6.24249C2.49236 6.27921 2.30769 6.29757 2.11575 6.29757C1.14439 6.29757 0.658718 5.759 0.658718 4.68186L0.658718 1.94619L0 1.94619L0 1.46882L0.706703 1.07407L1.05569 0L1.68824 0L1.68824 1.12916L3.06238 1.12916L3.06238 1.94619L1.68824 1.94619L1.68824 4.6635C1.68824 4.92361 1.74931 5.11639 1.87146 5.24185C1.99651 5.36426 2.15937 5.42546 2.36004 5.42546L2.36004 5.42546Z" transform="translate(18.657715 8.513062)" id="path3782" fill="#000000" fill-rule="evenodd" stroke="none" />
        <path d="M1.08619 7.02277L0.0610352 7.02277L0.0610352 1.94617L1.08619 1.94617L1.08619 7.02277ZM0 0.6013C0 0.408513 0.0494414 0.2601 0.148321 0.156063C0.250109 0.0520186 0.394066 0 0.580194 0C0.760507 0 0.900103 0.0520186 0.998982 0.156063C1.10077 0.2601 1.15166 0.408513 1.15166 0.6013C1.15166 0.784898 1.10077 0.930252 0.998982 1.03736C0.900103 1.14139 0.760507 1.19342 0.580194 1.19342C0.394066 1.19342 0.250109 1.14139 0.148321 1.03736C0.0494414 0.930252 0 0.784898 0 0.6013L0 0.6013Z" transform="translate(22.666992 7.695923)" id="path3784" fill="#000000" fill-rule="evenodd" stroke="none" />
        <path d="M3.35903 5.16841L3.15399 4.46154L3.1191 4.46154C2.88644 4.77061 2.65232 4.98175 2.41675 5.09497C2.18119 5.20513 1.87873 5.26021 1.50938 5.26021C1.03534 5.26021 0.664537 5.12557 0.396978 4.85628C0.132326 4.587 0 4.20603 0 3.71336C0 3.19009 0.184673 2.79535 0.554024 2.52912C0.92337 2.2629 1.48611 2.11755 2.24226 2.09307L3.07547 2.06553L3.07547 1.79471C3.07547 1.47035 3.00276 1.2286 2.85735 1.06948C2.71485 0.907301 2.49237 0.826208 2.18991 0.826208C1.94271 0.826208 1.70569 0.864459 1.47885 0.940961C1.252 1.01746 1.03388 1.10773 0.824488 1.21178L0.492948 0.440646C0.754691 0.296825 1.04115 0.188189 1.35233 0.114753C1.66352 0.038251 1.95725 0 2.23353 0C2.84717 0 3.30958 0.140762 3.62077 0.422287C3.93486 0.703812 4.0919 1.14598 4.0919 1.74881L4.0919 5.16841L3.35903 5.16841ZM1.83223 4.43402C2.20448 4.43402 2.50258 4.32539 2.72651 4.10812C2.95336 3.8878 3.06678 3.58026 3.06678 3.18552L3.06678 2.74487L2.44732 2.77242C1.96455 2.79077 1.61265 2.87646 1.39163 3.02946C1.17351 3.1794 1.06445 3.41043 1.06445 3.72256C1.06445 3.949 1.12843 4.12495 1.2564 4.25042C1.38436 4.37282 1.5763 4.43402 1.83223 4.43402L1.83223 4.43402Z" transform="translate(24.882812 9.550293)" id="path3786" fill="#000000" fill-rule="evenodd" stroke="none" />
        <path d="M2.36004 5.42546C2.61015 5.42546 2.86026 5.38415 3.11037 5.30152L3.11037 6.11396C2.99695 6.16599 2.85008 6.20882 2.66977 6.24249C2.49237 6.27921 2.30769 6.29757 2.11575 6.29757C1.14439 6.29757 0.658718 5.759 0.658718 4.68186L0.658718 1.94619L0 1.94619L0 1.46882L0.706705 1.07407L1.05569 0L1.68824 0L1.68824 1.12916L3.06238 1.12916L3.06238 1.94619L1.68824 1.94619L1.68824 4.6635C1.68824 4.92361 1.74931 5.11639 1.87146 5.24185C1.99651 5.36426 2.15937 5.42546 2.36004 5.42546L2.36004 5.42546Z" transform="translate(29.842773 8.513062)" id="path3788" fill="#000000" fill-rule="evenodd" stroke="none" />
        <path d="M1.0862 7.02277L0.0610352 7.02277L0.0610352 1.94617L1.0862 1.94617L1.0862 7.02277ZM0 0.6013C0 0.408513 0.0494415 0.2601 0.148321 0.156063C0.25011 0.0520186 0.39407 0 0.580195 0C0.760508 0 0.900104 0.0520186 0.998984 0.156063C1.10077 0.2601 1.15167 0.408513 1.15167 0.6013C1.15167 0.784898 1.10077 0.930252 0.998984 1.03736C0.900104 1.14139 0.760508 1.19342 0.580195 1.19342C0.39407 1.19342 0.25011 1.14139 0.148321 1.03736C0.0494415 0.930252 0 0.784898 0 0.6013L0 0.6013Z" transform="translate(33.85205 7.695923)" id="path3790" fill="#000000" fill-rule="evenodd" stroke="none" />
        <path d="M1.83219 5.07661L0 0L1.08187 0L2.0634 2.95141C2.23208 3.44713 2.33387 3.848 2.36876 4.154L2.40367 4.154C2.42984 3.93368 2.53163 3.53282 2.70903 2.95141L3.69056 0L4.78115 0L2.94024 5.07661L1.83219 5.07661Z" transform="translate(35.67578 9.64209)" id="path3792" fill="#000000" fill-rule="evenodd" stroke="none" />
        <path d="M2.39494 5.26021C1.64461 5.26021 1.05715 5.03071 0.632544 4.5717C0.210847 4.10964 0 3.47468 0 2.66683C0 1.83755 0.196307 1.18577 0.588918 0.711455C0.981532 0.237149 1.52101 0 2.20736 0C2.84426 0 3.34739 0.20349 3.71674 0.610476C4.08608 1.01746 4.27076 1.57745 4.27076 2.29044L4.27076 2.87338L1.05569 2.87338C1.07023 3.36605 1.19674 3.74549 1.43522 4.01172C1.67369 4.27487 2.0096 4.40646 2.44292 4.40646C2.72793 4.40646 2.99258 4.37892 3.23687 4.32384C3.48408 4.2657 3.74872 4.17084 4.03083 4.03926L4.03083 4.91596C3.78072 5.04142 3.5277 5.13016 3.27177 5.18218C3.01585 5.2342 2.72357 5.26021 2.39494 5.26021L2.39494 5.26021ZM2.20746 0.817017C1.88173 0.817017 1.61999 0.925645 1.42223 1.14291C1.22738 1.36017 1.11105 1.67688 1.07324 2.09305L3.26315 2.09305C3.25733 1.67383 3.16136 1.35712 2.97523 1.14291C2.78911 0.925645 2.53318 0.817017 2.20746 0.817017L2.20746 0.817017Z" transform="translate(40.901855 9.550293)" id="path3794" fill="#000000" fill-rule="evenodd" stroke="none" />
        <g id="flowRoot3797" transform="translate(45.95117 7.484741)">
          <path d="M1.25488 1.44023L1.47241 1.44023C1.57983 1.44023 1.66577 1.41293 1.73022 1.35833C1.79602 1.3024 1.82892 1.23182 1.82892 1.1466C1.82892 1.04672 1.80005 0.975475 1.74231 0.932861C1.68457 0.888916 1.59326 0.866943 1.46838 0.866943L1.25488 0.866943L1.25488 1.44023ZM2.12878 1.13863C2.12878 1.24516 2.09991 1.33971 2.04218 1.42227C1.98578 1.50351 1.90588 1.5641 1.80249 1.60405L2.28186 2.39307L1.94348 2.39307L1.52655 1.68595L1.25464 1.68595L1.25464 2.39307L0.956543 2.39307L0.956543 0.613281L1.48224 0.613281C1.70514 0.613281 1.86829 0.656561 1.97168 0.74312C2.07642 0.829679 2.12878 0.961515 2.12878 1.13863L2.12878 1.13863ZM0 1.50213C0 1.2358 0.0671387 0.986106 0.201416 0.753063C0.335693 0.52002 0.520325 0.336248 0.75531 0.201749C0.990295 0.0672496 1.24341 0 1.51465 0C1.7832 0 2.03497 0.0665838 2.26996 0.199751C2.50494 0.332919 2.69025 0.516025 2.82587 0.749068C2.96149 0.982111 3.0293 1.23313 3.0293 1.50213C3.0293 1.76447 2.96417 2.01083 2.83392 2.24121C2.70367 2.47159 2.52106 2.65603 2.28607 2.79452C2.05109 2.93302 1.79395 3.00226 1.51465 3.00226C1.23669 3.00226 0.980225 2.93368 0.745239 2.79652C0.510254 2.65803 0.326965 2.47359 0.195374 2.24321C0.0651245 2.01283 0 1.7658 0 1.50213L0 1.50213ZM0.211426 1.50211C0.211426 1.73249 0.269836 1.94822 0.386658 2.1493C0.503479 2.34905 0.662598 2.50686 0.864014 2.62271C1.06677 2.73724 1.28363 2.7945 1.51459 2.7945C1.74823 2.7945 1.96509 2.73657 2.16516 2.62072C2.36523 2.50486 2.52368 2.34839 2.6405 2.1513C2.75867 1.95288 2.81775 1.73648 2.81775 1.50211C2.81775 1.2704 2.75934 1.05533 2.64252 0.856911C2.5257 0.658492 2.36725 0.501354 2.16718 0.385498C1.96844 0.268311 1.75092 0.209717 1.51459 0.209717C1.28094 0.209717 1.06409 0.267645 0.864014 0.383501C0.66394 0.499356 0.504822 0.656494 0.386658 0.854914C0.269836 1.052 0.211426 1.26773 0.211426 1.50211L0.211426 1.50211Z" id="path3805" fill="#000000" fill-rule="evenodd" stroke="none" />
        </g>
      </g>
      <path d="M0 25.7526C0 11.5298 11.7606 0 26.268 0C40.7754 0 52.5359 11.5298 52.5359 25.7526C52.5359 39.9753 40.7754 51.5052 26.268 51.5052C11.7606 51.5052 0 39.9753 0 25.7526Z" transform="translate(-29.92041 -4.0196533)" id="path256" fill="none" fill-rule="evenodd" stroke="none" />
    </g>
  </g>
</svg>