<?xml version="1.0" encoding="utf-8"?>
<svg width="20px" height="20px" viewBox="0 0 20 20" version="1.1" xmlns:xlink="http://www.w3.org/1999/xlink" xmlns="http://www.w3.org/2000/svg">
  <defs>
    <filter id="filter_1">
      <feColorMatrix in="SourceGraphic" type="matrix" values="0 0 0 0 0.827451 0 0 0 0 0.827451 0 0 0 0 0.827451 0 0 0 1 0" />
    </filter>
  </defs>
  <g id="svg-3" filter="url(#filter_1)">
    <path d="M0 0L20 0L20 20L0 20L0 0Z" id="Shape" fill="none" fill-rule="evenodd" stroke="none" />
    <path d="M8.33333 0C3.72917 0 9.93411e-07 3.72917 9.93411e-07 8.33333C-0.00174979 11.9216 2.29444 15.1073 5.69875 16.2401C6.115 16.3125 6.27083 16.0625 6.27083 15.8433C6.27083 15.6458 6.26 14.99 6.26 14.2917C4.16667 14.6775 3.625 13.7817 3.45834 13.3125C3.36417 13.0725 2.95833 12.3333 2.60417 12.135C2.3125 11.9792 1.89583 11.5933 2.59333 11.5833C3.25 11.5725 3.71833 12.1875 3.875 12.4375C4.625 13.6975 5.82333 13.3433 6.30167 13.125C6.375 12.5833 6.59334 12.2192 6.83334 12.0108C4.97917 11.8025 3.04167 11.0833 3.04167 7.89584C3.04167 6.98917 3.36417 6.24 3.89584 5.65584C3.8125 5.4475 3.52084 4.59334 3.97917 3.4475C3.97917 3.4475 4.67667 3.22917 6.27084 4.3025C6.94922 4.11422 7.65014 4.01946 8.35417 4.02084C9.0625 4.02084 9.77083 4.11417 10.4375 4.30167C12.0308 3.21834 12.7292 3.44834 12.7292 3.44834C13.1875 4.59417 12.8958 5.44834 12.8125 5.65667C13.3433 6.24 13.6667 6.97917 13.6667 7.89584C13.6667 11.0942 11.7192 11.8025 9.865 12.0108C10.1667 12.2708 10.4275 12.7708 10.4275 13.5525C10.4275 14.6667 10.4167 15.5625 10.4167 15.8442C10.4167 16.0625 10.5733 16.3225 10.99 16.2392C14.3819 15.094 16.6657 11.9133 16.6667 8.33333C16.6667 3.72917 12.9375 0 8.33333 0L8.33333 0Z" transform="translate(1.666748 1.6665039)" id="Shape" fill="#000000" fill-rule="evenodd" stroke="none" />
  </g>
</svg>