<?xml version="1.0" encoding="utf-8"?>
<svg width="137px" height="72px" viewBox="0 0 137 72" version="1.1" xmlns:xlink="http://www.w3.org/1999/xlink" xmlns="http://www.w3.org/2000/svg">
  <defs>
    <filter id="filter_1">
      <feColorMatrix in="SourceGraphic" type="matrix" values="0 0 0 0 1 0 0 0 0 1 0 0 0 0 1 0 0 0 1 0" />
    </filter>
  </defs>
  <g id="gpl-v3-logo" transform="translate(4.2629395 4.2630615)" filter="url(#filter_1)">
    <g id="layer1">
      <g id="g3413">
        <g id="g68" transform="translate(60.746094 37.852173)">
          <path d="M1.17459 0C1.17459 0 1.17155 0 1.17155 0C0.88551 0 0.632945 0.0943342 0.395591 0.286041C0.219094 0.426023 0.0973783 0.614681 0 0.824654C0 0.824654 0.0121716 0.824654 0.0121716 0.824654C0.10955 0.614681 0.231266 0.426023 0.404718 0.286041C0.642072 0.0943342 0.894643 0.00303882 1.17459 0L1.17459 0Z" id="path70" fill="#000000" fill-opacity="0.9411765" fill-rule="evenodd" stroke="none" />
        </g>
        <path d="M10.5839 0C10.5839 0 0 46.1774 0 46.1774C0.0030429 46.1774 0.0034248 46.1774 0.00950992 46.1774C0.00950992 46.1774 48.9732 46.1774 48.9732 46.1774C48.9732 46.1774 74.4392 46.1774 74.4392 46.1774C71.4054 45.9127 69.0102 44.8476 67.583 42.9062C67.3183 42.5471 67.0995 42.1603 66.9078 41.7556C66.7861 41.4574 66.6716 41.1565 66.556 40.8522C66.2517 39.8845 66.1303 38.8107 66.1851 37.6666C66.3373 34.4775 67.8336 30.6841 70.4263 26.7118C73.1802 22.4902 77.1715 18.0656 82.1133 13.9597C83.2209 13.0401 84.3662 12.132 85.5652 11.2496C87.0471 10.1593 88.5405 9.15515 90.0346 8.21608C95.5393 4.75041 101.03 2.32538 105.896 1.09357C101.246 2.61051 96.0228 5.18571 90.8619 8.69155C90.6763 8.81692 90.4929 8.94533 90.3103 9.07192C87.4469 11.056 84.8527 13.1631 82.5888 15.291C75.3038 22.1408 71.4533 29.2386 73.203 33.3968C73.3278 33.6829 73.4765 33.956 73.65 34.2147C75.5305 36.9807 80.1913 37.4589 86.0977 35.9739C86.4994 35.8735 86.9011 35.7597 87.3149 35.6411C89.2016 35.0964 91.2046 34.3607 93.2677 33.4539C93.7637 33.2348 94.2651 33.0096 94.7702 32.7692C94.822 32.7449 94.8707 32.7206 94.9224 32.6932C101.434 29.4575 106.439 25.7345 107.522 23.4976C107.76 23.011 107.817 22.5962 107.655 22.2709C106.882 20.7038 101.474 21.7625 94.9224 24.6007C94.3959 24.8289 93.8634 25.0638 93.3248 25.3139C93.763 24.9071 94.2191 24.4987 94.6846 24.0967C95.4271 23.4571 96.1959 22.8316 97.0144 22.2139C98.2955 21.2437 99.5907 20.3667 100.866 19.5893C106.836 15.085 109.854 10.8242 109.224 9.24309C109.106 8.94518 108.853 8.74024 108.464 8.61547C107.219 8.21958 104.948 8.69208 102.188 9.82316C99.9114 10.7568 97.2971 12.1414 94.6466 13.8646C94.6466 13.8646 94.2852 14.1024 94.2852 14.1024C94.2853 14.1024 94.2187 14.1404 94.2187 14.1404C94.2187 14.1404 92.9444 14.9867 92.9444 14.9867C92.9444 14.9867 93.6767 13.6459 93.6767 13.6459C94.763 11.6573 96.5325 9.58246 98.7356 7.65503C100.351 6.24581 102.197 4.918 104.184 3.7562C104.936 3.31618 105.687 2.9075 106.438 2.53899C107.208 2.16289 107.978 1.82861 108.73 1.53101C110.914 0.667418 112.998 0.142683 114.816 0C114.65 0 109.709 0 109.709 0C109.709 0 92.4975 0 92.4975 0C92.4975 0 16.6033 0 16.6033 0C16.6033 0 10.5839 0 10.5839 0L10.5839 0ZM65.1869 0.0666504C64.8887 4.61806 65.7712 11.2845 67.7735 18.686C68.1295 20.003 68.5171 21.3433 68.9431 22.6989C69.2079 23.536 69.481 24.3601 69.7609 25.1713C69.5966 25.413 69.4312 25.6531 69.276 25.8941C66.7777 29.7228 65.3174 33.341 64.9492 36.4875C63.8933 32.9515 63.0983 29.0785 62.648 24.9717C62.5201 23.7949 62.4201 22.6314 62.3532 21.4817C61.8602 13.1308 62.9503 5.56078 65.1869 0.0666504L65.1869 0.0666504ZM15.329 5.99096C15.386 5.98962 15.4422 5.99096 15.5002 5.99096C15.5002 5.99096 26.7498 5.99096 26.7498 5.99096C27.7113 5.99096 28.455 6.17118 28.9844 6.53299C29.5109 6.89694 29.7083 7.36768 29.5835 7.94037C29.5835 7.94037 28.2427 13.9978 28.2427 13.9978C28.2427 13.9978 24.2773 13.9978 24.2773 13.9978C24.2773 13.9978 25.5801 8.10203 25.5801 8.10203C25.5801 8.10203 15.6523 8.10203 15.6523 8.10203C15.6523 8.10203 12.0673 24.306 12.0673 24.306C12.0673 24.306 10.774 30.1732 10.774 30.1732C10.774 30.1732 20.6923 30.1732 20.6923 30.1732C20.6923 30.1732 20.7018 30.1352 20.7018 30.1352C20.7018 30.1352 22.6893 21.1584 22.6893 21.1584C22.6893 21.1584 18.0297 21.1584 18.0297 21.1584C18.0297 21.1584 18.4766 19.1329 18.4766 19.1329C18.4766 19.1329 27.1016 19.1329 27.1016 19.1329C27.1016 19.1329 24.6292 30.3349 24.6292 30.3349C24.5957 30.4943 24.5371 30.6388 24.458 30.7818C24.2541 31.1531 23.8985 31.4711 23.4025 31.7328C22.7147 32.0949 21.8916 32.2748 20.93 32.2748C20.93 32.2748 9.68997 32.2748 9.68997 32.2748C8.72838 32.2748 7.98475 32.0949 7.45527 31.7328C6.92884 31.3707 6.72838 30.9082 6.85618 30.3349C6.85619 30.3349 11.8106 7.94037 11.8106 7.94037C11.9384 7.36768 12.337 6.89693 13.0278 6.53299C13.0521 6.51991 13.0795 6.51693 13.1038 6.50446C13.7343 6.18865 14.4742 6.01115 15.329 5.99096L15.329 5.99096ZM32.9594 5.99097C32.9594 5.99097 47.1188 5.99097 47.1188 5.99097C48.0682 5.99097 48.8145 6.17119 49.344 6.533C49.8765 6.89695 50.0804 7.36769 49.9526 7.94038C49.9526 7.94038 47.309 19.8841 47.309 19.8841C47.1842 20.4532 46.7761 20.9175 46.0823 21.282C45.3885 21.6478 44.5718 21.8335 43.6194 21.8335C43.6194 21.8335 33.3302 21.8335 33.3302 21.8335C33.3302 21.8335 31.3428 30.8009 31.3428 30.8009C31.3428 30.8009 31.0195 32.2748 31.0195 32.2748C31.0195 32.2748 27.1396 32.2748 27.1396 32.2748C27.1396 32.2748 27.4344 30.9435 27.4344 30.9435C27.4344 30.9435 32.9594 5.99097 32.9594 5.99097L32.9594 5.99097ZM52.5204 5.99097C52.5204 5.99097 56.4002 5.99097 56.4002 5.99097C56.4002 5.99097 52.0069 25.837 52.0069 25.837C52.0069 25.837 51.0465 30.1733 51.0465 30.1733C51.0465 30.1733 60.3276 30.1733 60.3276 30.1733C60.425 30.885 60.5387 31.5841 60.6604 32.2748C60.6604 32.2748 46.7007 32.2748 46.7007 32.2748C46.7007 32.2748 47.8038 27.2919 47.8038 27.2919C47.8038 27.2919 52.5204 5.99097 52.5204 5.99097L52.5204 5.99097ZM36.3734 8.10205C36.3734 8.10205 33.7964 19.7225 33.7964 19.7225C33.7964 19.7225 43.4674 19.7225 43.4674 19.7225C43.4674 19.7225 46.0349 8.10205 46.0349 8.10205C46.0349 8.10205 36.3734 8.10205 36.3734 8.10205L36.3734 8.10205ZM28.2427 34.1005C28.2806 34.0993 28.3185 34.1005 28.3568 34.1005C28.8071 34.1005 29.2004 34.1797 29.5169 34.3288C29.8547 34.487 30.0962 34.7221 30.2301 35.0325C30.361 35.3337 30.3952 35.6757 30.3252 36.05C30.3252 36.05 30.2967 36.1926 30.2967 36.1926C30.2967 36.1926 29.1841 36.1926 29.1841 36.1926C29.1841 36.1926 29.1936 36.0595 29.1936 36.0595C29.2224 35.798 29.1899 35.5923 29.089 35.4509C29.0758 35.4331 29.0568 35.4097 29.0414 35.3938C29.0163 35.3682 28.9786 35.3389 28.9464 35.3177C28.7907 35.2197 28.5472 35.1656 28.2332 35.1656C27.8163 35.1656 27.5047 35.2382 27.2917 35.3843C27.0848 35.5273 26.954 35.6871 26.9114 35.8788C26.8687 36.0735 26.9387 36.1759 26.9874 36.2306C26.9889 36.2321 26.9951 36.2385 26.9969 36.2401C27.0586 36.2927 27.2727 36.4159 27.9384 36.573C28.5409 36.719 28.9399 36.8503 29.1651 36.9629C29.5059 37.1363 29.744 37.3611 29.8688 37.638C29.9935 37.9119 30.0209 38.2325 29.9448 38.5795C29.8688 38.9172 29.6965 39.2287 29.4408 39.5209C29.1883 39.813 28.8669 40.0443 28.4804 40.2055C28.097 40.3638 27.6763 40.4528 27.2442 40.4528C26.6964 40.4528 26.2567 40.3699 25.9129 40.2055C25.5538 40.0351 25.2948 39.7662 25.1426 39.4163C24.9966 39.0755 24.9654 38.6886 25.0475 38.2656C25.0475 38.2656 25.076 38.1325 25.076 38.1325C25.076 38.1325 26.1696 38.1325 26.1696 38.1325C26.1696 38.1325 26.1601 38.2656 26.1601 38.2656C26.1327 38.5182 26.1597 38.7221 26.2267 38.8742C26.2906 39.0203 26.4123 39.1413 26.6071 39.2356C26.814 39.336 27.0726 39.3877 27.3678 39.3877C27.6325 39.3877 27.8745 39.3432 28.0905 39.2641C28.3035 39.1881 28.4728 39.0876 28.5945 38.9598C28.7132 38.832 28.7828 38.697 28.8132 38.5509C28.8437 38.4201 28.8364 38.3094 28.7847 38.2181C28.7269 38.1207 28.6124 38.0344 28.4329 37.9613C28.4329 37.9613 27.5009 37.6856 27.5009 37.6856C26.9806 37.5547 26.6303 37.43 26.4264 37.3052C26.1495 37.1409 25.9498 36.9301 25.8463 36.6776C25.7428 36.428 25.7318 36.1515 25.7988 35.8503C25.8687 35.5277 26.0243 35.2207 26.2647 34.9469C26.5082 34.67 26.8223 34.4528 27.1966 34.3098C27.5276 34.1856 27.8758 34.1129 28.2427 34.1005L28.2427 34.1005ZM38.2278 34.1196C38.2879 34.115 38.3445 34.1196 38.4084 34.1196C38.4084 34.1196 39.0931 34.1957 39.0931 34.1957C39.0931 34.1957 39.3213 34.2147 39.3213 34.2147C39.3213 34.2147 38.9885 35.0611 38.9885 35.0611C38.9885 35.0611 38.9219 35.1942 38.9219 35.1942C38.9219 35.1942 38.3989 35.1466 38.3989 35.1466C38.2445 35.1466 38.131 35.1705 38.0566 35.2227C38.0516 35.2264 38.0421 35.2377 38.0376 35.2417C38.0276 35.2505 38.0108 35.2658 37.9995 35.2798C37.9537 35.3398 37.898 35.4471 37.8569 35.6411C37.8569 35.6411 37.8371 35.7233 37.8189 35.7933C38.0592 35.7933 38.6367 35.7933 38.6367 35.7933C38.6367 35.7933 38.4275 36.7347 38.4275 36.7347C38.4275 36.7347 37.8295 36.7347 37.6287 36.7347C37.5678 37.0086 36.8204 40.3578 36.8204 40.3578C36.8204 40.3578 35.7173 40.3578 35.7173 40.3578C35.7173 40.3578 36.4343 37.1394 36.5256 36.7347C36.34 36.7347 35.8885 36.7347 35.8885 36.7347C35.8885 36.7347 36.0977 35.7933 36.0977 35.7933C36.0977 35.7933 36.5518 35.7933 36.7253 35.7933C36.7557 35.6624 36.8013 35.4985 36.8013 35.4985C36.8683 35.1942 36.9383 34.9755 37.0296 34.8233C37.1543 34.6134 37.3305 34.4376 37.5526 34.3098C37.7355 34.2035 37.9669 34.1399 38.2278 34.1196L38.2278 34.1196ZM40.8616 34.1671C40.8616 34.1671 40.5733 35.4646 40.5003 35.7932C40.7133 35.7932 41.2135 35.7932 41.2135 35.7932C41.2135 35.7932 41.0042 36.7346 41.0042 36.7346C41.0042 36.7346 40.4797 36.7346 40.291 36.7346C40.2332 36.9963 39.7775 39.0264 39.7775 39.0264C39.7775 39.0264 39.7395 39.2702 39.7395 39.3402C39.7396 39.3425 39.7393 39.348 39.7395 39.3497C39.7397 39.3504 39.7393 39.3586 39.7395 39.3592C39.7398 39.3597 39.7486 39.3588 39.749 39.3592C39.749 39.3592 39.8631 39.3687 39.8631 39.3687C39.8631 39.3687 40.3861 39.3307 40.3861 39.3307C40.3861 39.3307 40.3291 40.177 40.3291 40.177C40.3291 40.177 40.3386 40.3292 40.3386 40.3292C40.3386 40.3292 39.5874 40.4148 39.5874 40.4148C39.2891 40.4147 39.0704 40.3661 38.9122 40.2626C38.7448 40.153 38.6474 40.0078 38.6079 39.8252C38.6018 39.7917 38.5889 39.743 38.5889 39.673C38.5889 39.5361 38.6147 39.3044 38.703 38.9028C38.703 38.9028 39.1028 37.112 39.188 36.7346C39.0449 36.7346 38.6649 36.7346 38.6649 36.7346C38.6649 36.7346 38.8741 35.7932 38.8741 35.7932C38.8741 35.7932 39.245 35.7932 39.3972 35.7932C39.4459 35.5741 39.6159 34.8233 39.6159 34.8233C39.6159 34.8233 40.5003 34.3573 40.5003 34.3573C40.5003 34.3573 40.8616 34.1671 40.8616 34.1671L40.8616 34.1671ZM5.82003 34.2052C5.82003 34.2052 10.0992 34.2052 10.0992 34.2052C10.0992 34.2052 9.86151 35.2702 9.86151 35.2702C9.86151 35.2702 7.0068 35.2702 6.73293 35.2702C6.68424 35.4863 6.48911 36.3612 6.41912 36.6776C6.81471 36.6776 9.12929 36.6776 9.12929 36.6776C9.12929 36.6776 8.89155 37.7427 8.89155 37.7427C8.89155 37.7427 6.45526 37.7427 6.18139 37.7427C6.12357 38.0074 5.60131 40.3577 5.60131 40.3577C5.60132 40.3577 4.45068 40.3577 4.45068 40.3577C4.45069 40.3577 5.82003 34.2052 5.82003 34.2052L5.82003 34.2052ZM11.5541 35.7077C11.597 35.7024 11.6439 35.7077 11.6872 35.7077C11.9611 35.7077 12.214 35.791 12.4575 35.9644C12.4575 35.9644 12.6096 36.069 12.6096 36.069C12.6096 36.069 12.02 37.039 12.02 37.039C12.02 37.039 11.8584 36.9249 11.8584 36.9249C11.7397 36.8488 11.6119 36.8108 11.478 36.8108C11.3624 36.8108 11.2547 36.8518 11.1452 36.9249C11.0295 37.0009 10.9329 37.1017 10.8599 37.2387C10.7321 37.473 10.6385 37.7354 10.5746 38.0184C10.5746 38.0184 10.0611 40.3577 10.0611 40.3577C10.0611 40.3577 8.95801 40.3577 8.95801 40.3577C8.95801 40.3577 9.97551 35.7933 9.97551 35.7933C9.97551 35.7933 11.0025 35.7933 11.0025 35.7933C11.0025 35.7933 10.9671 35.9317 10.955 35.9834C11.0037 35.9469 11.055 35.8967 11.0976 35.8693C11.245 35.7814 11.4007 35.7265 11.5541 35.7077L11.5541 35.7077ZM14.8253 35.7077C14.8917 35.7026 14.9571 35.7077 15.025 35.7077C15.6457 35.7077 16.1155 35.9252 16.4228 36.3543C16.6145 36.6312 16.7176 36.9736 16.7176 37.3813C16.7176 37.6065 16.6898 37.8488 16.632 38.1135C16.632 38.1135 16.5464 38.4464 16.5464 38.4464C16.5464 38.4464 13.7568 38.4464 13.4464 38.4464C13.4403 38.5103 13.4369 38.5787 13.4369 38.6366C13.4369 38.8739 13.4856 39.0607 13.589 39.1976C13.6382 39.2645 13.6952 39.3248 13.7602 39.3688C13.8828 39.4487 14.041 39.4924 14.2262 39.4924C14.4513 39.4924 14.6491 39.4304 14.8348 39.3117C15.0113 39.1991 15.1801 39.0192 15.3292 38.7697C15.3292 38.7697 16.5084 38.7697 16.5084 38.7697C16.5084 38.7697 16.4038 38.9979 16.4038 38.9979C16.1786 39.4544 15.8644 39.8104 15.4719 40.063C15.0793 40.3155 14.6103 40.4528 14.093 40.4528C13.4205 40.4528 12.92 40.2353 12.6096 39.8062C12.3022 39.3863 12.236 38.8058 12.4004 38.0755C12.5647 37.333 12.8926 36.7396 13.3703 36.3258C13.7985 35.9545 14.2844 35.7485 14.8253 35.7077L14.8253 35.7077ZM19.7795 35.7077C19.8459 35.7026 19.9113 35.7077 19.9792 35.7077C20.6 35.7077 21.0697 35.9252 21.3771 36.3543C21.5688 36.6312 21.6719 36.9736 21.6719 37.3813C21.6719 37.6035 21.6441 37.8423 21.5863 38.104C21.5863 38.104 21.5007 38.4464 21.5007 38.4464C21.5007 38.4464 18.711 38.4464 18.4007 38.4464C18.3976 38.489 18.3942 38.5274 18.3911 38.57C18.3889 38.586 18.3921 38.6102 18.3911 38.627C18.3911 38.6298 18.3911 38.6339 18.3911 38.6366C18.3911 38.6822 18.3976 38.7271 18.4007 38.7697C18.4159 38.9431 18.4611 39.0881 18.5433 39.1976C18.5589 39.2189 18.5736 39.2452 18.5908 39.2642C18.7302 39.4133 18.9275 39.4924 19.1804 39.4924C19.4056 39.4924 19.6064 39.4304 19.789 39.3117C19.9655 39.1991 20.1344 39.0192 20.2835 38.7697C20.2835 38.7697 21.4722 38.7697 21.4722 38.7697C21.4722 38.7697 21.3581 38.9979 21.3581 38.9979C21.1329 39.4544 20.8187 39.8104 20.4261 40.063C20.0336 40.3155 19.5646 40.4528 19.0473 40.4528C18.3748 40.4528 17.8742 40.2353 17.5638 39.8062C17.363 39.5323 17.269 39.1835 17.269 38.7697C17.269 38.7058 17.2725 38.6369 17.2786 38.57C17.2907 38.4118 17.3151 38.252 17.3546 38.0755C17.519 37.336 17.8373 36.7396 18.3151 36.3258C18.7433 35.9545 19.2387 35.7485 19.7795 35.7077L19.7795 35.7077ZM33.2732 35.7076C33.3411 35.7024 33.4036 35.7076 33.4729 35.7076C34.1058 35.7076 34.5923 35.9218 34.9088 36.3448C35.2222 36.7677 35.2983 37.3383 35.137 38.0564C35.0122 38.6164 34.8319 39.0686 34.5855 39.3973C34.339 39.7259 34.0248 39.9945 33.6535 40.177C33.2853 40.3596 32.8955 40.4528 32.5029 40.4528C31.8578 40.4528 31.3774 40.2322 31.067 39.8062C30.8662 39.5353 30.7627 39.1865 30.7627 38.7696C30.7627 38.5445 30.7874 38.3052 30.8483 38.0374C31.0309 37.2219 31.4036 36.6007 31.9514 36.2021C32.3534 35.9119 32.7974 35.7442 33.2732 35.7076L33.2732 35.7076ZM49.9812 35.7076C50.0614 35.7027 50.1357 35.7076 50.2189 35.7076C50.6023 35.7076 50.9036 35.7464 51.1318 35.8408C51.3753 35.9381 51.5479 36.0758 51.6453 36.2402C51.7397 36.3954 51.788 36.5859 51.788 36.8202C51.788 36.8202 51.6739 37.5144 51.6739 37.5144C51.6739 37.5144 51.4646 38.4558 51.4646 38.4558C51.2851 39.2592 51.2456 39.5604 51.2364 39.673C51.2273 39.8252 51.2414 39.9735 51.284 40.1105C51.284 40.1105 51.36 40.3577 51.36 40.3577C51.36 40.3577 50.2379 40.3577 50.2379 40.3577C50.2379 40.3577 50.1904 40.2151 50.1904 40.2151C50.1721 40.1481 50.1775 40.0629 50.1714 39.9868C49.9584 40.1177 49.745 40.2337 49.5533 40.3007C49.2703 40.398 48.9766 40.4528 48.6784 40.4528C48.1611 40.4528 47.7781 40.3181 47.5468 40.0534C47.3703 39.8587 47.29 39.6206 47.29 39.3497C47.29 39.2463 47.3037 39.139 47.3281 39.0264C47.3798 38.7951 47.4738 38.581 47.6229 38.3893C47.7689 38.2006 47.9416 38.0454 48.1364 37.9328C48.325 37.8202 48.5354 37.7404 48.7545 37.6856C48.7545 37.6856 49.4296 37.5715 49.4296 37.5715C49.95 37.5106 50.3384 37.4349 50.6183 37.3528C50.6244 37.3223 50.6373 37.2862 50.6373 37.2862C50.6815 37.0904 50.6759 36.9432 50.6278 36.8678C50.6243 36.8629 50.6128 36.8529 50.6088 36.8488C50.5985 36.8378 50.5827 36.8206 50.5708 36.8107C50.4563 36.7202 50.2611 36.6776 50.0002 36.6776C49.705 36.6776 49.4867 36.7259 49.3346 36.8202C49.1854 36.9146 49.0474 37.0873 48.9257 37.3337C48.9256 37.3337 47.775 37.3337 47.775 37.3337C47.775 37.3337 47.8796 37.1055 47.8796 37.1055C48.0165 36.789 48.1797 36.5266 48.3836 36.3257C48.5875 36.1249 48.8629 35.9693 49.1824 35.8598C49.4273 35.779 49.6946 35.7253 49.9812 35.7076L49.9812 35.7076ZM54.8026 35.7077C54.8455 35.7024 54.8925 35.7077 54.9357 35.7077C55.2126 35.7077 55.472 35.791 55.7155 35.9644C55.7155 35.9644 55.8581 36.069 55.8581 36.069C55.8581 36.069 55.2686 37.039 55.2686 37.039C55.2686 37.039 55.1069 36.9249 55.1069 36.9249C54.9882 36.8488 54.8669 36.8108 54.736 36.8108C54.6204 36.8108 54.5063 36.8518 54.3937 36.9249C54.2781 37.0009 54.194 37.1017 54.1179 37.2387C53.9932 37.473 53.8965 37.7354 53.8326 38.0184C53.8326 38.0184 53.3096 40.3577 53.3096 40.3577C53.3096 40.3577 52.2065 40.3577 52.2065 40.3577C52.2065 40.3577 53.224 35.7933 53.224 35.7933C53.224 35.7933 54.251 35.7933 54.251 35.7933C54.251 35.7933 54.2252 35.9317 54.213 35.9834C54.2617 35.9469 54.31 35.8967 54.3556 35.8693C54.5007 35.7814 54.6493 35.7265 54.8026 35.7077L54.8026 35.7077ZM58.0644 35.7077C58.1308 35.7026 58.1962 35.7077 58.2641 35.7077C58.8849 35.7077 59.3577 35.9252 59.662 36.3543C59.8567 36.6312 59.9568 36.9736 59.9568 37.3813C59.9568 37.6065 59.9195 37.8488 59.8617 38.1135C59.8617 38.1135 59.7856 38.4464 59.7856 38.4464C59.7856 38.4464 56.9929 38.4464 56.6856 38.4464C56.6795 38.5103 56.6665 38.5787 56.6665 38.6366C56.6665 38.8739 56.7183 39.0607 56.8187 39.1976C56.8343 39.2189 56.8585 39.2452 56.8757 39.2642C56.8857 39.2748 56.9032 39.2923 56.9138 39.3022C57.0498 39.4259 57.235 39.4924 57.4653 39.4924C57.6905 39.4924 57.8883 39.4304 58.0739 39.3117C58.2504 39.1991 58.4163 39.0192 58.5684 38.7697C58.5684 38.7697 59.7571 38.7697 59.7571 38.7697C59.7571 38.7697 59.643 38.9979 59.643 38.9979C59.4178 39.4544 59.1005 39.8104 58.711 40.063C58.3155 40.3155 57.8525 40.4528 57.3322 40.4528C56.6597 40.4528 56.1686 40.2353 55.8582 39.8062C55.5509 39.3863 55.4782 38.8058 55.6395 38.0755C55.8038 37.333 56.1222 36.7396 56.6 36.3258C57.0309 35.9545 57.5241 35.7485 58.0644 35.7077L58.0644 35.7077ZM41.4136 35.7932C41.4136 35.7932 42.5452 35.7932 42.5452 35.7932C42.5452 35.7932 42.6848 38.5019 42.6878 38.5414C42.7335 38.4444 42.7689 38.3628 42.7734 38.3512C42.7734 38.3512 44.0191 35.7932 44.0191 35.7932C44.0191 35.7932 45.0557 35.7932 45.0557 35.7932C45.0557 35.7932 45.1507 38.4691 45.1507 38.4844C45.1812 38.4296 46.5676 35.7932 46.5676 35.7932C46.5676 35.7932 47.6898 35.7932 47.6898 35.7932C47.6897 35.7932 45.2173 40.3577 45.2173 40.3577C45.2173 40.3577 44.1998 40.3577 44.1998 40.3577C44.1998 40.3577 44.1013 37.8826 44.0952 37.7426C43.6753 38.6038 42.821 40.3577 42.821 40.3577C42.821 40.3577 41.7749 40.3577 41.7749 40.3577C41.7749 40.3577 41.4136 35.7932 41.4136 35.7932L41.4136 35.7932ZM14.844 36.6585C14.5819 36.6696 14.3439 36.7641 14.1213 36.9438C13.9448 37.0838 13.8258 37.2759 13.7314 37.4858C13.7314 37.4858 15.6048 37.4858 15.6048 37.4858C15.6078 37.4524 15.6143 37.4117 15.6143 37.3812C15.6143 37.2078 15.5835 37.0731 15.5287 36.9818C15.3948 36.7627 15.1963 36.6585 14.9011 36.6585C14.8834 36.6585 14.8615 36.6578 14.844 36.6585L14.844 36.6585ZM19.7986 36.6585C19.5365 36.6696 19.2984 36.7641 19.0759 36.9438C18.8994 37.0838 18.7834 37.2759 18.686 37.4858C18.686 37.4858 20.5594 37.4858 20.5594 37.4858C20.5624 37.4524 20.5689 37.4117 20.5689 37.3812C20.5689 37.2078 20.5411 37.0731 20.4833 36.9818C20.4567 36.9373 20.4208 36.8931 20.3882 36.8582C20.2612 36.7269 20.0863 36.6585 19.8557 36.6585C19.838 36.6585 19.8161 36.6578 19.7986 36.6585L19.7986 36.6585ZM58.1211 36.6586C57.8515 36.6669 57.5998 36.7581 57.3699 36.9438C57.1964 37.0838 57.0774 37.2759 56.98 37.4859C56.98 37.4859 58.8438 37.4859 58.8438 37.4859C58.8469 37.4524 58.8533 37.4117 58.8533 37.3813C58.8533 37.2078 58.8256 37.0732 58.7677 36.9819C58.6369 36.7658 58.4353 36.6616 58.1401 36.6586C58.1314 36.6586 58.1298 36.6583 58.1211 36.6586L58.1211 36.6586ZM33.2068 36.6776C32.9552 36.7075 32.7213 36.8223 32.5031 37.02C32.2414 37.2573 32.0516 37.6301 31.9421 38.1231C31.8964 38.33 31.8755 38.5068 31.8755 38.6651C31.8755 38.8811 31.9169 39.0508 31.9991 39.1786C32.021 39.2114 32.05 39.2461 32.0752 39.2737C32.2105 39.4173 32.3994 39.4924 32.6362 39.4924C32.9436 39.4924 33.2144 39.3779 33.4731 39.1406C33.7348 38.9002 33.9215 38.5236 34.0341 38.0184C34.1376 37.5559 34.1231 37.2105 33.9771 36.9914C33.8371 36.7784 33.6324 36.6776 33.3494 36.6776C33.3014 36.6776 33.2534 36.6721 33.2068 36.6776L33.2068 36.6776ZM50.3904 38.3417C50.1317 38.4117 49.8419 38.4706 49.4585 38.5223C49.1724 38.565 48.9686 38.6098 48.8499 38.6555C48.7464 38.6981 48.6631 38.757 48.5931 38.8362C48.5262 38.9122 48.4813 38.9921 48.46 39.0834C48.4539 39.1199 48.4505 39.1576 48.4505 39.188C48.4505 39.1905 48.4504 39.1951 48.4505 39.1975C48.4508 39.2048 48.4497 39.2191 48.4505 39.226C48.4524 39.2398 48.4562 39.2607 48.46 39.2736C48.4614 39.2778 48.4679 39.2885 48.4695 39.2926C48.4728 39.3008 48.4749 39.3133 48.479 39.3211C48.4833 39.3289 48.4929 39.3423 48.498 39.3497C48.506 39.3606 48.5169 39.3774 48.5266 39.3877C48.6026 39.4729 48.7544 39.5113 48.9735 39.5113C49.2139 39.5113 49.4452 39.4657 49.6582 39.3592C49.8681 39.2557 50.0374 39.1013 50.1622 38.9217C50.2535 38.7939 50.3265 38.5973 50.3904 38.3417L50.3904 38.3417Z" transform="translate(3.7773438 1.1903076)" id="path74" fill="#000000" fill-opacity="0.9411765" fill-rule="evenodd" stroke="none" />
        <g id="g80" transform="translate(61.92041 37.852173)">
          <path d="M0.00912735 0C0.00608853 0 0.00304427 0 0 0C0.295169 0.00303882 0.489925 0.103462 0.620769 0.319512C0.678588 0.410807 0.70902 0.54774 0.70902 0.721192C0.70902 0.751624 0.702931 0.791183 0.699887 0.824654C0.699887 0.824654 0.712064 0.824654 0.712064 0.824654C0.712064 0.791183 0.718147 0.751624 0.718147 0.721192C0.718147 0.54774 0.69076 0.410807 0.632946 0.319512C0.502097 0.100423 0.304301 0 0.00912735 0L0.00912735 0Z" id="path82" fill="#000000" fill-opacity="0.9411765" fill-rule="evenodd" stroke="none" />
        </g>
        <g id="g4966" transform="translate(0 51.740723)">
          <g id="g84" transform="translate(0 0.3043213)">
            <path d="M0 10.9548C0 10.9548 2.27007 10.9548 2.27007 10.9548C2.27007 10.9548 3.28948 6.69459 3.28948 6.69459C3.28948 6.69459 6.97759 6.69459 6.97759 6.69459C6.97759 6.69459 7.45229 4.86879 7.45229 4.86879C7.45229 4.86879 3.74897 4.86879 3.74897 4.86879C3.74897 4.86879 4.36365 2.13009 4.36365 2.13009C4.36365 2.13009 8.30433 2.13009 8.30433 2.13009C8.30433 2.13009 8.77904 0 8.77904 0C8.77904 0 2.55611 0 2.55611 0C2.55611 0 0 10.9548 0 10.9548L0 10.9548Z" id="path86" fill="#000000" fill-opacity="0.9411765" fill-rule="evenodd" stroke="none" />
          </g>
          <g id="g88" transform="translate(7.8964844 3.34729)">
            <path d="M2.28529 7.91178C2.28529 7.91178 2.96692 5.05137 2.96692 5.05137C3.32599 3.50248 4.0837 2.13009 5.51695 2.13009C5.64475 2.13009 5.76952 2.194 5.86385 2.20921C5.86385 2.20921 6.41768 0.0152159 6.41768 0.0152159C6.28987 0.0152159 6.14989 0 5.99166 0C4.93574 0 4.05022 0.742495 3.45988 1.80754C3.45988 1.80754 3.39902 1.80754 3.39902 1.80754C3.48727 1.28718 3.56335 0.79422 3.62116 0.304296C3.62116 0.304296 1.66452 0.304296 1.66452 0.304296C1.55193 0.937241 1.37848 2.17574 1.11374 3.29252C1.11374 3.29252 0 7.91178 0 7.91178C0 7.91178 2.28529 7.91178 2.28529 7.91178L2.28529 7.91178Z" id="path90" fill="#000000" fill-opacity="0.9411765" fill-rule="evenodd" stroke="none" />
          </g>
          <g id="g92" transform="translate(14.270996 3.34729)">
            <path d="M6.00762 5.85776C5.37772 6.16511 4.65957 6.08599 3.82275 6.08599C3.16242 6.08599 2.6512 5.97036 2.37124 5.74517C2.22518 5.49869 2.16432 5.11528 2.17649 4.86879C5.25904 4.95095 7.20352 4.23889 7.30089 2.29138C7.37392 0.821613 6.29975 0 4.73869 0C1.95131 0 0.125515 2.45874 0.00683733 4.82619C-0.096624 6.89239 0.974509 7.91178 3.18372 7.91178C4.03272 7.91178 5.15863 7.81441 6.08065 7.5375C6.08065 7.5375 6.00762 5.85776 6.00762 5.85776L6.00762 5.85776ZM5.17401 2.29139C5.13749 3.01562 4.24285 3.05821 2.48096 3.04301C2.67267 2.40701 3.31778 1.82581 4.3737 1.82581C4.89405 1.82581 5.19226 2.0236 5.17401 2.29139L5.17401 2.29139Z" id="path94" fill="#000000" fill-opacity="0.9411765" fill-rule="evenodd" stroke="none" />
          </g>
          <g id="g96" transform="translate(22.338379 3.34729)">
            <path d="M6.00724 5.85776C5.37734 6.16511 4.65919 6.08599 3.82542 6.08599C3.16204 6.08599 2.65386 5.97036 2.37391 5.74517C2.22784 5.49869 2.16394 5.11528 2.17611 4.86879C5.26171 4.95095 7.20314 4.23889 7.30356 2.29138C7.37659 0.821613 6.30241 0 4.74136 0C1.95093 0 0.125133 2.45874 0.00645885 4.82619C-0.093961 6.89239 0.977173 7.91178 3.18334 7.91178C4.03538 7.91178 5.16129 7.81441 6.08332 7.5375C6.08332 7.5375 6.00724 5.85776 6.00724 5.85776L6.00724 5.85776ZM5.17656 2.29139C5.14005 3.01562 4.24541 3.05821 2.48047 3.04301C2.67522 2.40701 3.31729 1.82581 4.37321 1.82581C4.89356 1.82581 5.19482 2.0236 5.17656 2.29139L5.17656 2.29139Z" id="path98" fill="#000000" fill-opacity="0.9411765" fill-rule="evenodd" stroke="none" />
          </g>
          <g id="g100" transform="translate(33.248535 3.34729)">
            <path d="M6.84285 7.91178C6.8611 6.94716 7.09237 5.43175 7.33277 4.43668C7.33277 4.43668 8.30957 0.304296 8.30957 0.304296C7.6888 0.094334 6.72113 0 5.78997 0C2.01057 0 0.136085 2.79956 0.00523624 5.42262C-0.0769234 7.06888 0.814675 7.91178 2.20228 7.91178C3.09996 7.91178 4.11328 7.47663 4.90142 6.16814C4.90142 6.16814 4.93489 6.16814 4.93489 6.16814C4.87403 6.79805 4.801 7.40969 4.76144 7.91178C4.76144 7.91178 6.84285 7.91178 6.84285 7.91178L6.84285 7.91178ZM5.28187 3.56641C4.83759 5.50175 3.93078 6.086 3.25523 6.086C2.62533 6.086 2.35146 5.63868 2.38798 4.98748C2.46101 3.51771 3.62343 1.82581 5.09016 1.82581C5.32751 1.82581 5.51313 1.78321 5.68658 1.7406C5.68658 1.7406 5.28187 3.56641 5.28187 3.56641L5.28187 3.56641Z" id="path102" fill="#000000" fill-opacity="0.9411765" fill-rule="evenodd" stroke="none" />
          </g>
          <g id="g104" transform="translate(41.57959 3.34729)">
            <path d="M0 7.55271C0.438191 7.89353 1.35717 7.89657 2.31572 7.91178C4.36365 7.927 5.9095 7.03236 6.00079 5.38914C6.05252 4.29366 5.20352 3.64551 4.37278 3.21036C3.77331 2.92127 3.47205 2.64436 3.48727 2.32181C3.50857 1.88666 3.91633 1.8258 4.5158 1.8258C5.19135 1.8258 5.733 1.90796 6.04339 1.96882C6.04339 1.96882 6.65807 0.319511 6.65807 0.319511C6.30813 0.10955 5.60824 0 4.71055 0C2.72348 0 1.26893 1.04983 1.18677 2.64436C1.13808 3.6303 1.8471 4.29366 2.70522 4.74403C3.39902 5.10006 3.63638 5.37392 3.61812 5.76039C3.59682 6.14989 3.24992 6.08599 2.62002 6.08599C1.88057 6.08599 1.062 5.98861 0.629901 5.92166C0.629901 5.92166 0 7.55271 0 7.55271L0 7.55271Z" id="path106" fill="#000000" fill-opacity="0.9411765" fill-rule="evenodd" stroke="none" />
          </g>
          <g id="g108" transform="translate(51.4541 0)">
            <path d="M2.26703 11.2591C2.26703 11.2591 4.10804 3.65161 4.10804 3.65161C4.10804 3.65161 1.85318 3.65161 1.85318 3.65161C1.85318 3.65161 0 11.2591 0 11.2591C0 11.2591 2.26703 11.2591 2.26703 11.2591L2.26703 11.2591ZM3.32287 2.73869C4.09579 2.73869 4.7835 2.09967 4.82611 1.00419C4.86262 0.261698 4.38183 0 3.67281 0C2.93337 0 2.25782 0.480797 2.21826 1.19894C2.18174 1.92317 2.66254 2.73869 3.32287 2.73869L3.32287 2.73869Z" id="path110" fill="#000000" fill-opacity="0.9411765" fill-rule="evenodd" stroke="none" />
          </g>
          <g id="g112" transform="translate(55.802734 3.557251)">
            <path d="M2.27007 7.70182C2.27007 7.70182 3.07343 4.27541 3.07343 4.27541C3.49032 2.53177 4.388 1.92013 5.12745 1.92013C5.7117 1.92013 5.88211 2.16965 5.85472 2.53177C5.83951 2.8239 5.79386 3.13125 5.733 3.40511C5.733 3.40511 4.71056 7.70182 4.71056 7.70182C4.71056 7.70182 6.98063 7.70182 6.98063 7.70182C6.98063 7.70182 8.05785 3.19515 8.05785 3.19515C8.14001 2.80565 8.2313 2.22443 8.24956 1.87144C8.31651 0.499052 7.63183 0 6.37203 0C5.36176 0 4.37887 0.468621 3.6029 1.48498C3.6029 1.48498 3.57248 1.48498 3.57248 1.48498C3.57248 1.48498 3.7794 0.094334 3.7794 0.094334C3.7794 0.094334 1.77711 0.094334 1.77711 0.094334C1.64626 0.745534 1.4789 1.53367 1.24154 2.45265C1.24154 2.45265 0 7.70182 0 7.70182C0 7.70182 2.27007 7.70182 2.27007 7.70182L2.27007 7.70182Z" id="path114" fill="#000000" fill-opacity="0.9411765" fill-rule="evenodd" stroke="none" />
          </g>
          <g id="g116" transform="translate(67.84082 0.3043213)">
            <path d="M0 10.9548C0 10.9548 2.27007 10.9548 2.27007 10.9548C2.27007 10.9548 3.29252 6.69459 3.29252 6.69459C3.29252 6.69459 6.97759 6.69459 6.97759 6.69459C6.97759 6.69459 7.45229 4.86879 7.45229 4.86879C7.45229 4.86879 3.74897 4.86879 3.74897 4.86879C3.74897 4.86879 4.36365 2.13009 4.36365 2.13009C4.36365 2.13009 8.30433 2.13009 8.30433 2.13009C8.30433 2.13009 8.77904 0 8.77904 0C8.77904 0 2.55611 0 2.55611 0C2.55611 0 0 10.9548 0 10.9548L0 10.9548Z" id="path118" fill="#000000" fill-opacity="0.9411765" fill-rule="evenodd" stroke="none" />
          </g>
          <g id="g120" transform="translate(75.737305 3.34729)">
            <path d="M2.28529 7.91178C2.28529 7.91178 2.96692 5.05137 2.96692 5.05137C3.32599 3.50248 4.0837 2.13009 5.51695 2.13009C5.64475 2.13009 5.76951 2.194 5.86384 2.20921C5.86384 2.20921 6.41767 0.0152159 6.41767 0.0152159C6.28987 0.0152159 6.14989 0 5.99165 0C4.93573 0 4.05022 0.742495 3.45988 1.80754C3.45988 1.80754 3.39902 1.80754 3.39902 1.80754C3.48727 1.28718 3.56334 0.79422 3.62116 0.304296C3.62116 0.304296 1.66452 0.304296 1.66452 0.304296C1.55497 0.937241 1.37848 2.17574 1.11374 3.29252C1.11374 3.29252 0 7.91178 0 7.91178C0 7.91178 2.28529 7.91178 2.28529 7.91178L2.28529 7.91178Z" id="path122" fill="#000000" fill-opacity="0.9411765" fill-rule="evenodd" stroke="none" />
          </g>
          <g id="g124" transform="translate(82.11133 3.34729)">
            <path d="M6.00761 5.85776C5.37771 6.16511 4.65956 6.08599 3.82274 6.08599C3.16241 6.08599 2.65119 5.97036 2.37123 5.74517C2.22517 5.49869 2.16431 5.11528 2.17648 4.86879C5.25903 4.95095 7.2035 4.23889 7.30088 2.29138C7.37392 0.821613 6.29974 0 4.73868 0C1.9513 0 0.125501 2.45874 0.00682372 4.82619C-0.0966376 6.89239 0.97754 7.91178 3.18371 7.91178C4.03271 7.91178 5.16166 7.81441 6.08064 7.5375C6.08064 7.5375 6.00761 5.85776 6.00761 5.85776L6.00761 5.85776ZM5.17401 2.29139C5.13749 3.01562 4.24285 3.05821 2.48096 3.04301C2.67266 2.40701 3.31778 1.82581 4.3737 1.82581C4.89405 1.82581 5.19226 2.0236 5.17401 2.29139L5.17401 2.29139Z" id="path126" fill="#000000" fill-opacity="0.9411765" fill-rule="evenodd" stroke="none" />
          </g>
          <g id="g128" transform="translate(90.17871 3.34729)">
            <path d="M6.00724 5.85776C5.37734 6.16511 4.65919 6.08599 3.82541 6.08599C3.16204 6.08599 2.65386 5.97036 2.3739 5.74517C2.22784 5.49869 2.16394 5.11528 2.17611 4.86879C5.26171 4.95095 7.20314 4.23889 7.30355 2.29138C7.37659 0.821613 6.30241 0 4.74136 0C1.95093 0 0.125136 2.45874 0.00645885 4.82619C-0.0939637 6.89239 0.97717 7.91178 3.18334 7.91178C4.03537 7.91178 5.16128 7.81441 6.08332 7.5375C6.08332 7.5375 6.00724 5.85776 6.00724 5.85776L6.00724 5.85776ZM5.17655 2.29139C5.14004 3.01562 4.2454 3.05821 2.48047 3.04301C2.67521 2.40701 3.31729 1.82581 4.37321 1.82581C4.89356 1.82581 5.19482 2.0236 5.17655 2.29139L5.17655 2.29139Z" id="path130" fill="#000000" fill-opacity="0.9411765" fill-rule="evenodd" stroke="none" />
          </g>
          <g id="g132" transform="translate(98.197754 0)">
            <path d="M7.00763 0C7.00763 0 6.15254 3.45684 6.15254 3.45684C5.84216 3.32904 5.43744 3.34729 5.12097 3.34729C2.20579 3.34729 0.142639 5.84254 0.00570731 8.54473C-0.0855879 10.4496 0.930771 11.2591 2.23926 11.2591C3.15519 11.2591 4.11983 10.8544 4.85014 9.80757C4.85014 9.80757 4.88058 9.80757 4.88058 9.80757C4.88058 9.80757 4.70712 11.2591 4.70712 11.2591C4.70712 11.2591 6.77027 11.2591 6.77027 11.2591C6.86461 10.3462 7.0624 9.25983 7.28454 8.26781C7.28454 8.26781 9.25944 0 9.25944 0C9.25944 0 7.00763 0 7.00763 0L7.00763 0ZM5.23023 7.431C4.8742 8.9312 4.03433 9.43329 3.37097 9.43329C2.71063 9.43329 2.34243 8.97379 2.38808 8.15523C2.46415 6.63982 3.50486 5.1731 4.85898 5.1731C5.23936 5.1731 5.56496 5.23091 5.7445 5.31612C5.7445 5.31612 5.23023 7.431 5.23023 7.431L5.23023 7.431Z" id="path134" fill="#000000" fill-opacity="0.9411765" fill-rule="evenodd" stroke="none" />
          </g>
          <g id="g136" transform="translate(107.24219 3.34729)">
            <path d="M3.13924 7.91178C5.78665 7.91178 7.82849 5.90646 7.97151 3.17688C8.05976 1.36935 6.93385 0 4.85548 0C2.1107 0 0.141888 2.22139 0.00495577 4.9053C-0.0893782 6.85891 1.17042 7.91178 3.13924 7.91178L3.13924 7.91178ZM3.49549 6.086C2.72256 6.086 2.29655 5.59303 2.34219 4.85663C2.40305 3.63031 3.16076 1.82581 4.4662 1.82581C5.36693 1.82581 5.64385 2.51656 5.60733 3.19516C5.54039 4.53408 4.72486 6.086 3.49549 6.086L3.49549 6.086Z" id="path138" fill="#000000" fill-opacity="0.9411765" fill-rule="evenodd" stroke="none" />
          </g>
          <g id="g140" transform="translate(115.84375 3.34729)">
            <path d="M2.19095 7.91178C2.19095 7.91178 3.01257 4.43668 3.01257 4.43668C3.35642 2.8878 4.21455 1.8258 4.98442 1.8258C5.53825 1.8258 5.6904 2.23051 5.66302 2.76C5.6478 3.03386 5.58694 3.34121 5.52303 3.64551C5.52303 3.64551 4.50668 7.91178 4.50668 7.91178C4.50668 7.91178 6.69763 7.91178 6.69763 7.91178C6.69763 7.91178 7.51924 4.42147 7.51924 4.42147C7.89657 2.8239 8.70601 1.8258 9.46068 1.8258C9.98102 1.8258 10.1971 2.19704 10.1727 2.72653C10.1575 3.03386 10.0936 3.37164 10.0145 3.67898C10.0145 3.67898 9.02857 7.91178 9.02857 7.91178C9.02857 7.91178 11.2347 7.91178 11.2347 7.91178C11.2347 7.91178 12.2967 3.40511 12.2967 3.40511C12.3789 3.00039 12.4732 2.3705 12.4885 2.04793C12.5554 0.709014 11.9012 0 10.7205 0C9.7102 0 8.72731 0.456454 7.98177 1.41804C7.95439 0.72423 7.45838 0 6.22901 0C5.23395 0 4.28454 0.450366 3.52379 1.46976C3.52379 1.46976 3.49335 1.46976 3.49335 1.46976C3.49335 1.46976 3.69724 0.304296 3.69724 0.304296C3.69724 0.304296 1.74364 0.304296 1.74364 0.304296C1.61583 0.955496 1.46064 1.74364 1.22328 2.66262C1.22328 2.66262 0 7.91178 0 7.91178C0 7.91178 2.19095 7.91178 2.19095 7.91178L2.19095 7.91178Z" id="path142" fill="#000000" fill-opacity="0.9411765" fill-rule="evenodd" stroke="none" />
          </g>
        </g>
        <path d="M0 42.5826C0.123524 42.9002 0.247054 43.2173 0.375729 43.5274C0.57389 43.9487 0.802934 44.3519 1.0783 44.7285C2.5658 46.7505 5.05696 47.8576 8.2198 48.1332C8.2198 48.1332 11.622 48.1332 11.622 48.1332C12.6977 48.0493 13.8249 47.8928 14.9933 47.6643C17.0084 47.2703 19.1444 46.665 21.3627 45.8562C23.0432 45.2434 24.7701 44.5185 26.5226 43.6759C30.3392 41.8464 34.2818 39.4867 38.1498 36.6391C39.4237 35.7021 40.6461 34.7406 41.8196 33.763C42.8953 32.8679 43.9273 31.9589 44.913 31.0399C47.6641 28.3887 49.7409 25.696 50.917 23.3317C52.142 20.8697 52.3865 18.7645 51.3828 17.4384C50.7677 16.6244 49.7383 16.1882 48.413 16.0855C54.3835 11.6055 57.8629 6.17103 56.6148 2.74465C56.2184 1.65117 55.346 0.835359 54.0953 0.38422C53.5394 0.184268 52.914 0.0576395 52.232 0C52.232 0 50.3946 0 50.3946 0C47.8288 0.18503 44.0976 1.10378 40.9322 2.65509" transform="translate(69.68799 0)" id="path2592" fill="none" fill-rule="evenodd" stroke="#000000" stroke-width="8.526108" />
      </g>
    </g>
  </g>
</svg>