<?xml version="1.0" encoding="utf-8"?>
<svg width="18px" height="20px" viewBox="0 0 18 20" version="1.1" xmlns:xlink="http://www.w3.org/1999/xlink" xmlns="http://www.w3.org/2000/svg">
  <defs>
    <filter id="filter_1">
      <feColorMatrix in="SourceGraphic" type="matrix" values="0 0 0 0 0.827451 0 0 0 0 0.827451 0 0 0 0 0.827451 0 0 0 1 0" />
    </filter>
    <path d="M0 0L17.5 0L17.5 20L0 20L0 0Z" id="path_1" />
    <clipPath id="mask_1">
      <use xlink:href="#path_1" />
    </clipPath>
  </defs>
  <g id="slack-brands" filter="url(#filter_1)">
    <path d="M0 0L17.5 0L17.5 20L0 20L0 0Z" id="Background" fill="none" fill-rule="evenodd" stroke="none" />
    <g clip-path="url(#mask_1)">
      <path d="M3.67656 11.0585C3.67656 12.0702 2.85 12.8968 1.83828 12.8968C0.826562 12.8968 0 12.0702 0 11.0585C0 10.0468 0.826562 9.22021 1.83828 9.22021L3.67656 9.22021L3.67656 11.0585L3.67656 11.0585ZM4.60303 11.0585C4.60303 10.0468 5.42959 9.22021 6.44131 9.22021C7.45303 9.22021 8.27959 10.0468 8.27959 11.0585L8.27959 15.6616C8.27959 16.6733 7.45303 17.4999 6.44131 17.4999C5.42959 17.4999 4.60303 16.6733 4.60303 15.6616L4.60303 11.0585L4.60303 11.0585ZM6.44131 3.67656C5.42959 3.67656 4.60303 2.85 4.60303 1.83828C4.60303 0.826563 5.42959 0 6.44131 0C7.45303 0 8.27959 0.826563 8.27959 1.83828L8.27959 3.67656L6.44131 3.67656L6.44131 3.67656ZM6.44141 4.60303C7.45312 4.60303 8.27969 5.42959 8.27969 6.44131C8.27969 7.45303 7.45312 8.27959 6.44141 8.27959L1.83828 8.27959C0.826562 8.27959 0 7.45303 0 6.44131C0 5.42959 0.826562 4.60303 1.83828 4.60303L6.44141 4.60303L6.44141 4.60303ZM13.8237 6.44131C13.8237 5.42959 14.6503 4.60303 15.662 4.60303C16.6737 4.60303 17.5003 5.42959 17.5003 6.44131C17.5003 7.45303 16.6737 8.27959 15.662 8.27959L13.8237 8.27959L13.8237 6.44131L13.8237 6.44131ZM12.8968 6.44141C12.8968 7.45313 12.0702 8.27969 11.0585 8.27969C10.0468 8.27969 9.22021 7.45313 9.22021 6.44141L9.22021 1.83828C9.22021 0.826563 10.0468 0 11.0585 0C12.0702 0 12.8968 0.826563 12.8968 1.83828L12.8968 6.44141L12.8968 6.44141ZM11.0585 13.8237C12.0702 13.8237 12.8968 14.6503 12.8968 15.662C12.8968 16.6737 12.0702 17.5003 11.0585 17.5003C10.0468 17.5003 9.22021 16.6737 9.22021 15.662L9.22021 13.8237L11.0585 13.8237L11.0585 13.8237ZM11.0585 12.8968C10.0468 12.8968 9.22021 12.0702 9.22021 11.0585C9.22021 10.0468 10.0468 9.22021 11.0585 9.22021L15.6616 9.22021C16.6733 9.22021 17.4999 10.0468 17.4999 11.0585C17.4999 12.0702 16.6733 12.8968 15.6616 12.8968L11.0585 12.8968L11.0585 12.8968Z" transform="translate(0 1.25)" id="Shape" fill="#000000" fill-rule="evenodd" stroke="none" />
    </g>
  </g>
</svg>